<mxfile host="app.diagrams.net" agent="Mozilla/5.0 (Windows NT 10.0; Win64; x64) AppleWebKit/537.36 (KHTML, like Gecko) Chrome/129.0.0.0 Safari/537.36" version="24.7.16">
  <diagram name="Page-1" id="c37626ed-c26b-45fb-9056-f9ebc6bb27b6">
    <mxGraphModel dx="1050" dy="522" grid="0" gridSize="10" guides="1" tooltips="1" connect="1" arrows="1" fold="1" page="0" pageScale="1" pageWidth="1100" pageHeight="850" background="none" math="0" shadow="0">
      <root>
        <mxCell id="0" />
        <mxCell id="1" parent="0" />
        <mxCell id="YmzD1ZilttaITtH1taTr-1" value="" style="image;html=1;image=img/lib/clip_art/networking/Switch_128x128.png" parent="1" vertex="1">
          <mxGeometry x="219" y="245" width="80" height="80" as="geometry" />
        </mxCell>
        <mxCell id="YmzD1ZilttaITtH1taTr-2" value="" style="image;html=1;image=img/lib/clip_art/networking/Switch_128x128.png" parent="1" vertex="1">
          <mxGeometry x="494" y="144" width="80" height="80" as="geometry" />
        </mxCell>
        <mxCell id="YmzD1ZilttaITtH1taTr-3" value="" style="image;html=1;image=img/lib/clip_art/networking/Switch_128x128.png" parent="1" vertex="1">
          <mxGeometry x="360" y="153" width="80" height="80" as="geometry" />
        </mxCell>
        <mxCell id="YmzD1ZilttaITtH1taTr-4" value="" style="image;html=1;image=img/lib/clip_art/networking/Switch_128x128.png" parent="1" vertex="1">
          <mxGeometry x="385" y="298" width="80" height="80" as="geometry" />
        </mxCell>
        <mxCell id="YmzD1ZilttaITtH1taTr-5" value="" style="verticalLabelPosition=bottom;sketch=0;aspect=fixed;html=1;verticalAlign=top;strokeColor=none;align=center;outlineConnect=0;shape=mxgraph.citrix.thin_client;" parent="1" vertex="1">
          <mxGeometry x="1137" y="221" width="71" height="71" as="geometry" />
        </mxCell>
        <mxCell id="YmzD1ZilttaITtH1taTr-13" value="" style="image;html=1;image=img/lib/clip_art/computers/Server_Tower_128x128.png" parent="1" vertex="1">
          <mxGeometry x="440" y="38" width="80" height="80" as="geometry" />
        </mxCell>
        <mxCell id="YmzD1ZilttaITtH1taTr-15" value="" style="endArrow=none;html=1;rounded=0;entryX=0.75;entryY=0;entryDx=0;entryDy=0;exitX=0.25;exitY=0.325;exitDx=0;exitDy=0;exitPerimeter=0;" parent="1" source="psrak5ICO2c13kQ1rIhj-31" target="YmzD1ZilttaITtH1taTr-24" edge="1">
          <mxGeometry width="50" height="50" relative="1" as="geometry">
            <mxPoint x="622" y="399" as="sourcePoint" />
            <mxPoint x="672" y="349" as="targetPoint" />
          </mxGeometry>
        </mxCell>
        <mxCell id="YmzD1ZilttaITtH1taTr-17" value="" style="endArrow=none;html=1;rounded=0;" parent="1" source="YmzD1ZilttaITtH1taTr-3" edge="1">
          <mxGeometry width="50" height="50" relative="1" as="geometry">
            <mxPoint x="685" y="351" as="sourcePoint" />
            <mxPoint x="504" y="193" as="targetPoint" />
          </mxGeometry>
        </mxCell>
        <mxCell id="YmzD1ZilttaITtH1taTr-18" value="" style="endArrow=none;html=1;rounded=0;exitX=0.738;exitY=0.3;exitDx=0;exitDy=0;exitPerimeter=0;entryX=0.175;entryY=0.7;entryDx=0;entryDy=0;entryPerimeter=0;" parent="1" source="YmzD1ZilttaITtH1taTr-1" target="YmzD1ZilttaITtH1taTr-3" edge="1">
          <mxGeometry width="50" height="50" relative="1" as="geometry">
            <mxPoint x="505" y="359" as="sourcePoint" />
            <mxPoint x="470" y="279" as="targetPoint" />
          </mxGeometry>
        </mxCell>
        <mxCell id="YmzD1ZilttaITtH1taTr-19" value="" style="endArrow=none;html=1;rounded=0;entryX=0.01;entryY=0.348;entryDx=0;entryDy=0;entryPerimeter=0;exitX=0.825;exitY=0.6;exitDx=0;exitDy=0;exitPerimeter=0;" parent="1" source="YmzD1ZilttaITtH1taTr-1" target="YmzD1ZilttaITtH1taTr-4" edge="1">
          <mxGeometry width="50" height="50" relative="1" as="geometry">
            <mxPoint x="397" y="360" as="sourcePoint" />
            <mxPoint x="555" y="309" as="targetPoint" />
          </mxGeometry>
        </mxCell>
        <mxCell id="YmzD1ZilttaITtH1taTr-22" value="sw4" style="text;html=1;align=center;verticalAlign=middle;whiteSpace=wrap;rounded=0;" parent="1" vertex="1">
          <mxGeometry x="195" y="314" width="60" height="30" as="geometry" />
        </mxCell>
        <mxCell id="YmzD1ZilttaITtH1taTr-23" value="sw7" style="text;html=1;align=center;verticalAlign=middle;whiteSpace=wrap;rounded=0;" parent="1" vertex="1">
          <mxGeometry x="395" y="205" width="60" height="30" as="geometry" />
        </mxCell>
        <mxCell id="YmzD1ZilttaITtH1taTr-24" value="sw8" style="text;html=1;align=center;verticalAlign=middle;whiteSpace=wrap;rounded=0;" parent="1" vertex="1">
          <mxGeometry x="517" y="189.5" width="60" height="30" as="geometry" />
        </mxCell>
        <mxCell id="YmzD1ZilttaITtH1taTr-25" value="sw5" style="text;html=1;align=center;verticalAlign=middle;whiteSpace=wrap;rounded=0;" parent="1" vertex="1">
          <mxGeometry x="402" y="345" width="60" height="30" as="geometry" />
        </mxCell>
        <mxCell id="YmzD1ZilttaITtH1taTr-26" value="client" style="text;html=1;align=center;verticalAlign=middle;whiteSpace=wrap;rounded=0;" parent="1" vertex="1">
          <mxGeometry x="1145" y="285.5" width="60" height="30" as="geometry" />
        </mxCell>
        <mxCell id="YmzD1ZilttaITtH1taTr-27" value="server" style="text;html=1;align=center;verticalAlign=middle;whiteSpace=wrap;rounded=0;" parent="1" vertex="1">
          <mxGeometry x="450" y="109" width="60" height="30" as="geometry" />
        </mxCell>
        <mxCell id="psrak5ICO2c13kQ1rIhj-1" value="" style="endArrow=none;html=1;rounded=0;fontSize=12;startSize=8;endSize=8;curved=1;exitX=0.413;exitY=0.275;exitDx=0;exitDy=0;exitPerimeter=0;entryX=-0.02;entryY=0.156;entryDx=0;entryDy=0;entryPerimeter=0;" parent="1" source="YmzD1ZilttaITtH1taTr-4" target="YmzD1ZilttaITtH1taTr-23" edge="1">
          <mxGeometry width="50" height="50" relative="1" as="geometry">
            <mxPoint x="553" y="353" as="sourcePoint" />
            <mxPoint x="603" y="303" as="targetPoint" />
          </mxGeometry>
        </mxCell>
        <mxCell id="psrak5ICO2c13kQ1rIhj-2" value="" style="endArrow=none;html=1;rounded=0;fontSize=12;startSize=8;endSize=8;curved=1;exitX=0.982;exitY=0.525;exitDx=0;exitDy=0;exitPerimeter=0;" parent="1" source="YmzD1ZilttaITtH1taTr-4" edge="1">
          <mxGeometry width="50" height="50" relative="1" as="geometry">
            <mxPoint x="553" y="353" as="sourcePoint" />
            <mxPoint x="512" y="340" as="targetPoint" />
          </mxGeometry>
        </mxCell>
        <mxCell id="psrak5ICO2c13kQ1rIhj-5" value="" style="endArrow=none;html=1;rounded=0;fontSize=12;startSize=8;endSize=8;curved=1;exitX=0.99;exitY=0.478;exitDx=0;exitDy=0;exitPerimeter=0;" parent="1" source="psrak5ICO2c13kQ1rIhj-6" edge="1">
          <mxGeometry width="50" height="50" relative="1" as="geometry">
            <mxPoint x="581" y="388.744623655914" as="sourcePoint" />
            <mxPoint x="644" y="339" as="targetPoint" />
          </mxGeometry>
        </mxCell>
        <mxCell id="psrak5ICO2c13kQ1rIhj-6" value="" style="image;html=1;image=img/lib/clip_art/networking/Switch_128x128.png" parent="1" vertex="1">
          <mxGeometry x="506" y="300.25" width="80" height="80" as="geometry" />
        </mxCell>
        <mxCell id="psrak5ICO2c13kQ1rIhj-7" value="sw6" style="text;html=1;align=center;verticalAlign=middle;whiteSpace=wrap;rounded=0;" parent="1" vertex="1">
          <mxGeometry x="532" y="350.25" width="60" height="30" as="geometry" />
        </mxCell>
        <mxCell id="psrak5ICO2c13kQ1rIhj-18" value="" style="image;html=1;image=img/lib/clip_art/networking/Switch_128x128.png" parent="1" vertex="1">
          <mxGeometry x="634" y="142.5" width="80" height="83" as="geometry" />
        </mxCell>
        <mxCell id="psrak5ICO2c13kQ1rIhj-19" value="sw11" style="text;html=1;align=center;verticalAlign=middle;whiteSpace=wrap;rounded=0;" parent="1" vertex="1">
          <mxGeometry x="644" y="192.25" width="60" height="30" as="geometry" />
        </mxCell>
        <mxCell id="psrak5ICO2c13kQ1rIhj-20" value="" style="image;html=1;image=img/lib/clip_art/networking/Switch_128x128.png" parent="1" vertex="1">
          <mxGeometry x="772" y="146.75" width="80" height="80" as="geometry" />
        </mxCell>
        <mxCell id="psrak5ICO2c13kQ1rIhj-21" value="sw2" style="text;html=1;align=center;verticalAlign=middle;whiteSpace=wrap;rounded=0;" parent="1" vertex="1">
          <mxGeometry x="795" y="192.25" width="60" height="30" as="geometry" />
        </mxCell>
        <mxCell id="psrak5ICO2c13kQ1rIhj-22" value="" style="endArrow=none;html=1;rounded=0;fontSize=12;startSize=8;endSize=8;curved=1;exitX=0.853;exitY=0.007;exitDx=0;exitDy=0;exitPerimeter=0;" parent="1" source="YmzD1ZilttaITtH1taTr-24" edge="1">
          <mxGeometry width="50" height="50" relative="1" as="geometry">
            <mxPoint x="569" y="191" as="sourcePoint" />
            <mxPoint x="642" y="190" as="targetPoint" />
          </mxGeometry>
        </mxCell>
        <mxCell id="psrak5ICO2c13kQ1rIhj-23" value="" style="endArrow=none;html=1;rounded=0;fontSize=12;startSize=8;endSize=8;curved=1;" parent="1" edge="1">
          <mxGeometry width="50" height="50" relative="1" as="geometry">
            <mxPoint x="713" y="189" as="sourcePoint" />
            <mxPoint x="779" y="188" as="targetPoint" />
          </mxGeometry>
        </mxCell>
        <mxCell id="psrak5ICO2c13kQ1rIhj-24" value="" style="image;html=1;image=img/lib/clip_art/networking/Switch_128x128.png" parent="1" vertex="1">
          <mxGeometry x="975.5" y="218" width="80" height="80" as="geometry" />
        </mxCell>
        <mxCell id="psrak5ICO2c13kQ1rIhj-25" value="sw1" style="text;html=1;align=center;verticalAlign=middle;whiteSpace=wrap;rounded=0;" parent="1" vertex="1">
          <mxGeometry x="998.5" y="265" width="60" height="28.5" as="geometry" />
        </mxCell>
        <mxCell id="psrak5ICO2c13kQ1rIhj-26" value="" style="endArrow=none;html=1;rounded=0;fontSize=12;startSize=8;endSize=8;curved=1;exitX=0.75;exitY=0;exitDx=0;exitDy=0;entryX=0.01;entryY=0.339;entryDx=0;entryDy=0;entryPerimeter=0;" parent="1" source="psrak5ICO2c13kQ1rIhj-21" target="psrak5ICO2c13kQ1rIhj-27" edge="1">
          <mxGeometry width="50" height="50" relative="1" as="geometry">
            <mxPoint x="827" y="222.25" as="sourcePoint" />
            <mxPoint x="847" y="239.25" as="targetPoint" />
          </mxGeometry>
        </mxCell>
        <mxCell id="psrak5ICO2c13kQ1rIhj-27" value="" style="image;html=1;image=img/lib/clip_art/networking/Switch_128x128.png" parent="1" vertex="1">
          <mxGeometry x="975.5" y="218" width="80" height="80" as="geometry" />
        </mxCell>
        <mxCell id="psrak5ICO2c13kQ1rIhj-29" value="" style="image;html=1;image=img/lib/clip_art/networking/Switch_128x128.png" parent="1" vertex="1">
          <mxGeometry x="765" y="295" width="80" height="80" as="geometry" />
        </mxCell>
        <mxCell id="psrak5ICO2c13kQ1rIhj-30" value="sw10" style="text;html=1;align=center;verticalAlign=middle;whiteSpace=wrap;rounded=0;" parent="1" vertex="1">
          <mxGeometry x="775" y="381" width="60" height="15" as="geometry" />
        </mxCell>
        <mxCell id="psrak5ICO2c13kQ1rIhj-31" value="" style="image;html=1;image=img/lib/clip_art/networking/Switch_128x128.png" parent="1" vertex="1">
          <mxGeometry x="637" y="298" width="80" height="80" as="geometry" />
        </mxCell>
        <mxCell id="psrak5ICO2c13kQ1rIhj-32" value="sw9" style="text;html=1;align=center;verticalAlign=middle;whiteSpace=wrap;rounded=0;" parent="1" vertex="1">
          <mxGeometry x="660" y="360" width="60" height="28.5" as="geometry" />
        </mxCell>
        <mxCell id="psrak5ICO2c13kQ1rIhj-33" value="" style="endArrow=none;html=1;rounded=0;fontSize=12;startSize=8;endSize=8;curved=1;exitX=0.359;exitY=0.042;exitDx=0;exitDy=0;exitPerimeter=0;entryX=0.206;entryY=0.737;entryDx=0;entryDy=0;entryPerimeter=0;" parent="1" source="psrak5ICO2c13kQ1rIhj-37" target="psrak5ICO2c13kQ1rIhj-27" edge="1">
          <mxGeometry width="50" height="50" relative="1" as="geometry">
            <mxPoint x="650" y="359" as="sourcePoint" />
            <mxPoint x="700" y="309" as="targetPoint" />
          </mxGeometry>
        </mxCell>
        <mxCell id="psrak5ICO2c13kQ1rIhj-34" value="" style="endArrow=none;html=1;rounded=0;fontSize=12;startSize=8;endSize=8;curved=1;" parent="1" target="psrak5ICO2c13kQ1rIhj-31" edge="1">
          <mxGeometry width="50" height="50" relative="1" as="geometry">
            <mxPoint x="772" y="338" as="sourcePoint" />
            <mxPoint x="781" y="416.88999999999993" as="targetPoint" />
          </mxGeometry>
        </mxCell>
        <mxCell id="psrak5ICO2c13kQ1rIhj-35" value="" style="endArrow=none;html=1;rounded=0;fontSize=12;startSize=8;endSize=8;curved=1;exitX=0.275;exitY=0.325;exitDx=0;exitDy=0;exitPerimeter=0;" parent="1" source="psrak5ICO2c13kQ1rIhj-29" edge="1">
          <mxGeometry width="50" height="50" relative="1" as="geometry">
            <mxPoint x="650" y="359" as="sourcePoint" />
            <mxPoint x="680" y="197" as="targetPoint" />
          </mxGeometry>
        </mxCell>
        <mxCell id="psrak5ICO2c13kQ1rIhj-36" value="" style="image;html=1;image=img/lib/clip_art/networking/Switch_128x128.png" parent="1" vertex="1">
          <mxGeometry x="892.5" y="298" width="80" height="80" as="geometry" />
        </mxCell>
        <mxCell id="psrak5ICO2c13kQ1rIhj-37" value="sw3" style="text;html=1;align=center;verticalAlign=middle;whiteSpace=wrap;rounded=0;" parent="1" vertex="1">
          <mxGeometry x="915.5" y="349.5" width="60" height="28.5" as="geometry" />
        </mxCell>
        <mxCell id="psrak5ICO2c13kQ1rIhj-38" value="" style="endArrow=none;html=1;rounded=0;fontSize=12;startSize=8;endSize=8;curved=1;" parent="1" source="psrak5ICO2c13kQ1rIhj-29" target="psrak5ICO2c13kQ1rIhj-36" edge="1">
          <mxGeometry width="50" height="50" relative="1" as="geometry">
            <mxPoint x="846" y="262" as="sourcePoint" />
            <mxPoint x="896" y="212" as="targetPoint" />
          </mxGeometry>
        </mxCell>
        <mxCell id="psrak5ICO2c13kQ1rIhj-44" value="" style="endArrow=none;html=1;rounded=0;fontSize=12;startSize=8;endSize=8;curved=1;entryX=0.047;entryY=0.505;entryDx=0;entryDy=0;entryPerimeter=0;" parent="1" source="psrak5ICO2c13kQ1rIhj-27" target="YmzD1ZilttaITtH1taTr-5" edge="1">
          <mxGeometry width="50" height="50" relative="1" as="geometry">
            <mxPoint x="1133.5" y="261.5" as="sourcePoint" />
            <mxPoint x="1183.5" y="211.5" as="targetPoint" />
          </mxGeometry>
        </mxCell>
        <mxCell id="psrak5ICO2c13kQ1rIhj-46" value="" style="endArrow=none;html=1;rounded=0;fontSize=12;startSize=8;endSize=8;curved=1;exitX=0.918;exitY=0.061;exitDx=0;exitDy=0;exitPerimeter=0;" parent="1" source="YmzD1ZilttaITtH1taTr-27" edge="1">
          <mxGeometry width="50" height="50" relative="1" as="geometry">
            <mxPoint x="935" y="58.75" as="sourcePoint" />
            <mxPoint x="539" y="165" as="targetPoint" />
          </mxGeometry>
        </mxCell>
      </root>
    </mxGraphModel>
  </diagram>
</mxfile>
